<?xml version="1.0" encoding="UTF-8"?>
<!-- Created with Inkscape (http://www.inkscape.org/) -->
<svg width="600" height="600" version="1.1" viewBox="0 0 158.75 158.75" xmlns="http://www.w3.org/2000/svg">
 <defs>
  <clipPath id="clipPath3428">
   <circle transform="matrix(.8741 0 0 .8741 245.09 124.28)" cx="-126.16" cy="-211.36" r="343.84" fill="none" stroke="#000" stroke-linecap="round" stroke-linejoin="round" stroke-width="11.44"/>
  </clipPath>
 </defs>
 <g transform="matrix(.25978 0 0 .25978 103.47 151.31)" stroke-linecap="round" stroke-linejoin="round">
  <circle transform="matrix(.8741 0 0 .8741 17.511 -92.161)" cx="-126.16" cy="-211.36" r="343.84" fill="#d7f4d7" stroke="#87de87" stroke-width="11.44"/>
  <g transform="translate(-227.58 -216.44)" clip-path="url(#clipPath3428)" fill="#fff" stroke="#000" stroke-width="3.5287">
   <path d="m150.28-156.17c-4.5297 0.72367-27.254 4.5589-38.081 7.6479-13.295 3.7931-30.372 10.786-43.52 15.065-10.892 3.545-26.248 3.6446-33.897 12.179-8.5778 9.5704-6.3522 40.645-6.7707 42.321l58.172 26.597c-0.58813-5.2991 31.282-37.449 35.048-42.057 0 0 25.68-1.8092 30.702-3.9037 5.0214-2.0945 38.08-12.065 38.08-12.065l-0.16513-0.49595c-0.30195-0.9068 28.407 4.783 31.726 4.6416 3.3416-0.14241 26.59 0.14437 26.59 0.14437 13.336 8.5114 25.915 8.1983 32.014 9.2786 32.103 5.6857 31.775-14.408 29.848-18.944-1.0983-2.5861-35.416-18.163-50.821-25.481-3.8265-1.8177-7.5601-4.1777-11.625-5.3671-3.2076-0.93848-8.9782-1.5026-12.275-2.0511-5.3841-0.89596-17.531-4.9079-22.912-5.8197-7.0214-1.1896-16.381-2.0068-23.461-2.7782-4.8492-0.52839-13.471-4.268-18.318-3.9745-3.7062 0.22445-11.825 3.7051-20.334 5.0644z"/>
   <path d="m145.09-186.1c-5.3454 0.85472-32.162 5.3845-44.939 9.0328-15.689 4.48-35.842 12.739-51.356 17.793-12.854 4.1869-30.974 4.3046-40.001 14.384-10.122 11.303-7.4961 48.006-7.9899 49.985l68.647 31.413c-0.69404-6.2587 38.498-38.729 42.942-44.171 0 0 28.722-7.6391 34.647-10.113 5.9256-2.4738 44.937-14.25 44.937-14.25l-0.19487-0.58576c-0.35632-1.071 33.522 5.6492 37.439 5.4821 3.9433-0.1682 31.378 0.17051 31.378 0.17051 15.737 10.053 30.581 9.683 37.779 10.959 37.884 6.7153 37.496-17.017 35.223-22.375-1.296-3.0544-41.793-21.452-59.972-30.095-4.5156-2.1468-8.9214-4.9342-13.719-6.3391-3.7852-1.1084-10.595-1.7746-14.485-2.4226-6.3536-1.0582-20.688-5.7967-27.038-6.8736-8.2857-1.405-19.331-2.3702-27.686-3.2813-5.7224-0.62407-15.897-5.0409-21.617-4.6942-4.3736 0.26509-13.955 4.376-23.995 5.9814z"/>
   <path d="m164.88-204.65c-5.3454 0.85472-32.162 5.3845-44.939 9.0328-15.689 4.48-36.479 11.09-51.356 17.793-20.275 9.1342-66.742 14.467-67.211 27.989-1.4647 42.224-7.4961 83.874-7.9899 85.853l85.962-45.27c-0.69404-6.2587 34.787-12.755 39.231-18.198 0 0 42.327-6.4022 48.253-8.876 5.9256-2.4738 44.937-14.25 44.937-14.25l-0.19487-0.58576c-0.35632-1.071 33.522 5.6492 37.439 5.4821 3.9433-0.1682 31.378 0.17051 31.378 0.17051 15.737 10.053 30.581 9.683 37.779 10.959 37.884 6.7153 37.496-17.017 35.223-22.375-1.296-3.0544-41.793-21.452-59.972-30.095-4.5156-2.1468-8.9214-4.9342-13.719-6.3391-3.7852-1.1084-10.595-1.7746-14.485-2.4226-6.3536-1.0582-20.688-5.7967-27.038-6.8736-8.2857-1.405-19.331-2.3702-27.686-3.2813-5.7224-0.62407-15.897-5.0409-21.617-4.6942-4.3736 0.26509-13.955 4.376-23.995 5.9814z"/>
   <path d="m147.9-196.2c-5.3454 0.85472-32.162 5.3845-44.939 9.0328-15.689 4.48-35.842 12.739-51.356 17.793-12.854 4.1869-30.974 4.3046-40.001 14.384-10.122 11.303-7.4961 48.006-7.9899 49.985-0.49379 1.979-37.416 122.03-37.416 122.03l-102.42 111.95 95.879 82.982s71.858-75.059 83.516-82.08c17.841-10.744 39.338-6.3244 63.191-24.278 24.452-18.404 56.22-43.983 62.64-47.446 6.4194-3.4633 42.542-31.174 42.542-31.174 0 0 35.583-24.17 42.002-26.149 6.4194-1.979 31.076-21.883 31.076-21.883 0 0 7.9557-26.54 11.314-34.146 7.5668-17.137 27.431-35.046 14.959-49.01-8.5256-9.5452-37.621-3.2711-42.6 1.1353-3.8388 3.397-24.919 26.969-30.009 41.991-1.3845 4.0861-3.9419 5.8611-3.9419 5.8611 0 0-27.957 17.04-41.508 18.939-12.061 1.6905-24.732 5.6831-35.7 0.37902-18.925-9.1516-59.153-42.395-60.141-51.3-0.69404-6.2587 7.5769-23.887 12.021-29.329 0 0 34.906-8.8759 40.832-11.35 5.9256-2.4738 44.937-14.25 44.937-14.25l-0.19487-0.58576c-0.35632-1.071 33.522 5.6492 37.439 5.4821 3.9433-0.1682 31.378 0.17051 31.378 0.17051 15.737 10.053 30.581 9.683 37.779 10.959 37.884 6.7152 37.496-17.017 35.223-22.375-1.296-3.0544-41.793-21.452-59.972-30.095-4.5156-2.1468-8.9214-4.9342-13.719-6.3391-3.7852-1.1084-10.595-1.7746-14.485-2.4226-6.3536-1.0582-20.688-5.7967-27.038-6.8736-8.2857-1.405-19.331-2.3702-27.686-3.2813-5.7224-0.62407-15.897-5.0409-21.617-4.6942-4.3736 0.26509-13.955 4.376-23.995 5.9814z"/>
  </g>
 </g>
</svg>
