<?xml version="1.0" encoding="UTF-8"?>
<!-- Created with Inkscape (http://www.inkscape.org/) -->
<svg width="600" height="600" version="1.0" xmlns="http://www.w3.org/2000/svg" xmlns:cc="http://creativecommons.org/ns#" xmlns:dc="http://purl.org/dc/elements/1.1/" xmlns:rdf="http://www.w3.org/1999/02/22-rdf-syntax-ns#">
 <metadata>
  <rdf:RDF>
   <cc:Work rdf:about="">
    <dc:format>image/svg+xml</dc:format>
    <dc:type rdf:resource="http://purl.org/dc/dcmitype/StillImage"/>
    <dc:date>2009-12-05</dc:date>
    <dc:creator>
     <cc:Agent>
      <dc:title>nojhan</dc:title>
     </cc:Agent>
    </dc:creator>
    <cc:license rdf:resource="http://creativecommons.org/licenses/by-sa/4.0/"/>
    <dc:source>http://commons.wikimedia.org/wiki/Category:Rock_Paper_Scissors</dc:source>
    <dc:contributor>
     <cc:Agent>
      <dc:title>Concept by Sam Kass. Photos on Wikimedia Commons by Fluff, modified by Sertion.</dc:title>
     </cc:Agent>
    </dc:contributor>
    <dc:rights>
     <cc:Agent>
      <dc:title>nojhan</dc:title>
     </cc:Agent>
    </dc:rights>
    <dc:publisher>
     <cc:Agent>
      <dc:title>Wikimedia Commons</dc:title>
     </cc:Agent>
    </dc:publisher>
    <dc:identifier>http://commons.wikimedia.org/wiki/File:pierre_ciseaux_feuille_lézard_spock.svg</dc:identifier>
    <dc:subject>
     <rdf:Bag>
      <rdf:li>pierre</rdf:li>
      <rdf:li>feuille</rdf:li>
      <rdf:li>ciseaux</rdf:li>
      <rdf:li>lézard</rdf:li>
      <rdf:li>spock</rdf:li>
      <rdf:li>lizard</rdf:li>
      <rdf:li>rock</rdf:li>
      <rdf:li>cissors</rdf:li>
      <rdf:li>paper</rdf:li>
      <rdf:li>morra</rdf:li>
      <rdf:li>rochambeau</rdf:li>
      <rdf:li/>
     </rdf:Bag>
    </dc:subject>
    <dc:description>Un diagrame de résolution du jeu « Pierre, ciseaux, feuille, lézard, Spock ».

A resolution diagram of the game "Rock, Paper, Scissors, Lizard, Spock".</dc:description>
   </cc:Work>
   <cc:License rdf:about="http://creativecommons.org/licenses/by-sa/4.0/">
    <cc:permits rdf:resource="http://creativecommons.org/ns#Reproduction"/>
    <cc:permits rdf:resource="http://creativecommons.org/ns#Distribution"/>
    <cc:requires rdf:resource="http://creativecommons.org/ns#Notice"/>
    <cc:requires rdf:resource="http://creativecommons.org/ns#Attribution"/>
    <cc:permits rdf:resource="http://creativecommons.org/ns#DerivativeWorks"/>
    <cc:requires rdf:resource="http://creativecommons.org/ns#ShareAlike"/>
   </cc:License>
  </rdf:RDF>
 </metadata>
 <defs>
  <clipPath id="clipPath3453">
   <circle cx="-260.97" cy="358.82" r="300.55" fill="#d7f4d7" stroke="#87de87" stroke-linecap="round" stroke-linejoin="round" stroke-width="10"/>
  </clipPath>
 </defs>
 <g transform="translate(-4.5404 -1.9251)">
  <g transform="matrix(.98184 0 0 .98184 560.77 -50.378)" stroke-linecap="round" stroke-linejoin="round">
   <circle transform="matrix(.8741 0 0 .8741 -150.7 543.57)" cx="-126.16" cy="-211.36" r="343.84" fill="#ffd5d5" stroke="#ff8080" stroke-width="11.44"/>
   <g clip-path="url(#clipPath3453)" fill="#fff" stroke="#000" stroke-width="3.5287">
    <path d="m-575.83 459.77s81.489-34.878 106.83-44.388c11.942-4.4819 29.618-5.944 40.724-12.217 12.928-7.3022 29.192-20.42 36.652-33.258 3.2682-5.6246 13.736-55.268 19.683-78.054 1.0975-4.2051 11.547-29.321 19.683-42.081 10.628-16.668 32.299-37.774 44.118-53.62 3.8843-5.2076 6.9446-13.732 11.538-18.326 9.1878-9.1878 24.424-18.681 36.652-23.077 5.9892-2.1532 12.441-3.1027 18.326-0.67873 2.1467 0.88419 5.1676 4.3998 7.4661 4.0724 16.142-2.2993 48.133-4.7693 65.837 4.0724 8.1406 4.0656 15.918 14.793 19.683 23.077 3.3041 7.2691-1.4329 16.499-2.4564 21.73 7.1799 3.5231 33.79 38.224 38.429 51.573 1.8061 5.1966-0.24287 8.5912 1.3575 13.855 4.2524 5.3613 11.13 16.641 14.253 24.154 3.6971 8.8927 5.6736 21.759 7.4661 31.222 2.4494 12.93 9.3133 30.675 6.1086 43.439-2.5191 10.033-15.252 15.473-19.005 25.113-0.66879 1.7183-2.1128 7.4972-3.3937 8.8235-19.343 20.029-49.06 35.736-80.09 65.158-15.051 14.271-29.718 30.744-47.511 41.403-8.2858 4.9632-24.467 12.289-33.258 16.29-15.702 7.1451-30.017 19.826-47.511 27.149-10.698 4.4789-40.143 14.953-55.656 22.398-29.353 14.088-69.696 42.081-88.914 50.226z"/>
    <g fill-opacity=".096154">
     <path d="m-150.29 207.58c-4.4624-2.424-12.044-4.848-18.584-7.2721"/>
     <path d="m-219.24 191.15c4.8009 1.8004 26.009-5.3654 38.246-1.3467 12.154 3.9917 16.85 22.136 23.971 26.664"/>
     <path d="m-168.07 235.05c6.9539 4.8677 24.224 3.2296 32.051 8.6187 7.827 5.3892 10.447 20.345 17.237 28.819"/>
     <path d="m-110.43 273.57c-5.9906-7.3903-10.164-10.238-14.813-14.275"/>
     <path d="m-99.924 303.73c-1.0278 2.0556 7.2229 12.051 8.8881 17.507s-0.55109 15.829 0 18.584"/>
    </g>
   </g>
  </g>
 </g>
</svg>
